<?xml version="1.0" encoding="utf-8" standalone="no"?>
<!DOCTYPE svg PUBLIC "-//W3C//DTD SVG 1.1//EN" "http://www.w3.org/Graphics/SVG/1.1/DTD/svg11.dtd">
<svg width="600" height="400" version="1.1" xmlns:xlink="http://www.w3.org/1999/xlink" xmlns="http://www.w3.org/2000/svg">
  <defs>
    <clipPath id="clipPath1">
      <rect x="0" y="0" width="600" height="400" />
    </clipPath>
  </defs>
  <g clip-path="url(#clipPath1)">
    <polyline points="38.6597,370.947 38.6597,374.947" style="fill:none;stroke:black;stroke-width:1" shape-rendering="crispEdges" />
    <polyline points="76.1879,370.947 76.1879,374.947" style="fill:none;stroke:black;stroke-width:1" shape-rendering="crispEdges" />
    <polyline points="94.952,370.947 94.952,374.947" style="fill:none;stroke:black;stroke-width:1" shape-rendering="crispEdges" />
    <polyline points="113.7161,370.947 113.7161,374.947" style="fill:none;stroke:black;stroke-width:1" shape-rendering="crispEdges" />
    <polyline points="132.4802,370.947 132.4802,374.947" style="fill:none;stroke:black;stroke-width:1" shape-rendering="crispEdges" />
    <polyline points="170.0084,370.947 170.0084,374.947" style="fill:none;stroke:black;stroke-width:1" shape-rendering="crispEdges" />
    <polyline points="188.7725,370.947 188.7725,374.947" style="fill:none;stroke:black;stroke-width:1" shape-rendering="crispEdges" />
    <polyline points="207.5366,370.947 207.5366,374.947" style="fill:none;stroke:black;stroke-width:1" shape-rendering="crispEdges" />
    <polyline points="226.3007,370.947 226.3007,374.947" style="fill:none;stroke:black;stroke-width:1" shape-rendering="crispEdges" />
    <polyline points="263.829,370.947 263.829,374.947" style="fill:none;stroke:black;stroke-width:1" shape-rendering="crispEdges" />
    <polyline points="282.5931,370.947 282.5931,374.947" style="fill:none;stroke:black;stroke-width:1" shape-rendering="crispEdges" />
    <polyline points="301.3572,370.947 301.3572,374.947" style="fill:none;stroke:black;stroke-width:1" shape-rendering="crispEdges" />
    <polyline points="320.1213,370.947 320.1213,374.947" style="fill:none;stroke:black;stroke-width:1" shape-rendering="crispEdges" />
    <polyline points="357.6495,370.947 357.6495,374.947" style="fill:none;stroke:black;stroke-width:1" shape-rendering="crispEdges" />
    <polyline points="376.4136,370.947 376.4136,374.947" style="fill:none;stroke:black;stroke-width:1" shape-rendering="crispEdges" />
    <polyline points="395.1777,370.947 395.1777,374.947" style="fill:none;stroke:black;stroke-width:1" shape-rendering="crispEdges" />
    <polyline points="413.9418,370.947 413.9418,374.947" style="fill:none;stroke:black;stroke-width:1" shape-rendering="crispEdges" />
    <polyline points="451.47,370.947 451.47,374.947" style="fill:none;stroke:black;stroke-width:1" shape-rendering="crispEdges" />
    <polyline points="470.2341,370.947 470.2341,374.947" style="fill:none;stroke:black;stroke-width:1" shape-rendering="crispEdges" />
    <polyline points="488.9982,370.947 488.9982,374.947" style="fill:none;stroke:black;stroke-width:1" shape-rendering="crispEdges" />
    <polyline points="507.7623,370.947 507.7623,374.947" style="fill:none;stroke:black;stroke-width:1" shape-rendering="crispEdges" />
    <polyline points="545.2905,370.947 545.2905,374.947" style="fill:none;stroke:black;stroke-width:1" shape-rendering="crispEdges" />
    <polyline points="564.0546,370.947 564.0546,374.947" style="fill:none;stroke:black;stroke-width:1" shape-rendering="crispEdges" />
    <polyline points="582.8187,370.947 582.8187,374.947" style="fill:none;stroke:black;stroke-width:1" shape-rendering="crispEdges" />
    <polyline points="34.498,353.8896 30.498,353.8896" style="fill:none;stroke:black;stroke-width:1" shape-rendering="crispEdges" />
    <polyline points="34.498,341.7048 30.498,341.7048" style="fill:none;stroke:black;stroke-width:1" shape-rendering="crispEdges" />
    <polyline points="34.498,329.52 30.498,329.52" style="fill:none;stroke:black;stroke-width:1" shape-rendering="crispEdges" />
    <polyline points="34.498,317.3352 30.498,317.3352" style="fill:none;stroke:black;stroke-width:1" shape-rendering="crispEdges" />
    <polyline points="34.498,292.9656 30.498,292.9656" style="fill:none;stroke:black;stroke-width:1" shape-rendering="crispEdges" />
    <polyline points="34.498,280.7808 30.498,280.7808" style="fill:none;stroke:black;stroke-width:1" shape-rendering="crispEdges" />
    <polyline points="34.498,268.596 30.498,268.596" style="fill:none;stroke:black;stroke-width:1" shape-rendering="crispEdges" />
    <polyline points="34.498,256.4112 30.498,256.4112" style="fill:none;stroke:black;stroke-width:1" shape-rendering="crispEdges" />
    <polyline points="34.498,232.0416 30.498,232.0416" style="fill:none;stroke:black;stroke-width:1" shape-rendering="crispEdges" />
    <polyline points="34.498,219.8568 30.498,219.8568" style="fill:none;stroke:black;stroke-width:1" shape-rendering="crispEdges" />
    <polyline points="34.498,207.672 30.498,207.672" style="fill:none;stroke:black;stroke-width:1" shape-rendering="crispEdges" />
    <polyline points="34.498,195.4872 30.498,195.4872" style="fill:none;stroke:black;stroke-width:1" shape-rendering="crispEdges" />
    <polyline points="34.498,171.1176 30.498,171.1176" style="fill:none;stroke:black;stroke-width:1" shape-rendering="crispEdges" />
    <polyline points="34.498,158.9328 30.498,158.9328" style="fill:none;stroke:black;stroke-width:1" shape-rendering="crispEdges" />
    <polyline points="34.498,146.748 30.498,146.748" style="fill:none;stroke:black;stroke-width:1" shape-rendering="crispEdges" />
    <polyline points="34.498,134.5632 30.498,134.5632" style="fill:none;stroke:black;stroke-width:1" shape-rendering="crispEdges" />
    <polyline points="34.498,110.1936 30.498,110.1936" style="fill:none;stroke:black;stroke-width:1" shape-rendering="crispEdges" />
    <polyline points="34.498,98.0088 30.498,98.0088" style="fill:none;stroke:black;stroke-width:1" shape-rendering="crispEdges" />
    <polyline points="34.498,85.824 30.498,85.824" style="fill:none;stroke:black;stroke-width:1" shape-rendering="crispEdges" />
    <polyline points="34.498,73.6392 30.498,73.6392" style="fill:none;stroke:black;stroke-width:1" shape-rendering="crispEdges" />
    <polyline points="34.498,49.2696 30.498,49.2696" style="fill:none;stroke:black;stroke-width:1" shape-rendering="crispEdges" />
    <polyline points="34.498,37.0848 30.498,37.0848" style="fill:none;stroke:black;stroke-width:1" shape-rendering="crispEdges" />
    <text dominant-baseline="hanging" text-anchor="middle" transform="translate(57.4238,381.947)" font-family="Segoe UI" font-size="12" font-weight="400" fill="black">-1,5</text>
    <text dominant-baseline="hanging" text-anchor="middle" transform="translate(151.2443,381.947)" font-family="Segoe UI" font-size="12" font-weight="400" fill="black">-1</text>
    <text dominant-baseline="hanging" text-anchor="middle" transform="translate(245.0648,381.947)" font-family="Segoe UI" font-size="12" font-weight="400" fill="black">-0,5</text>
    <text dominant-baseline="hanging" text-anchor="middle" transform="translate(338.8854,381.947)" font-family="Segoe UI" font-size="12" font-weight="400" fill="black">0</text>
    <text dominant-baseline="hanging" text-anchor="middle" transform="translate(432.7059,381.947)" font-family="Segoe UI" font-size="12" font-weight="400" fill="black">0,5</text>
    <text dominant-baseline="hanging" text-anchor="middle" transform="translate(526.5264,381.947)" font-family="Segoe UI" font-size="12" font-weight="400" fill="black">1</text>
    <polyline points="57.4238,370.947 57.4238,377.947" style="fill:none;stroke:black;stroke-width:1" shape-rendering="crispEdges" />
    <polyline points="151.2443,370.947 151.2443,377.947" style="fill:none;stroke:black;stroke-width:1" shape-rendering="crispEdges" />
    <polyline points="245.0648,370.947 245.0648,377.947" style="fill:none;stroke:black;stroke-width:1" shape-rendering="crispEdges" />
    <polyline points="338.8854,370.947 338.8854,377.947" style="fill:none;stroke:black;stroke-width:1" shape-rendering="crispEdges" />
    <polyline points="432.7059,370.947 432.7059,377.947" style="fill:none;stroke:black;stroke-width:1" shape-rendering="crispEdges" />
    <polyline points="526.5264,370.947 526.5264,377.947" style="fill:none;stroke:black;stroke-width:1" shape-rendering="crispEdges" />
    <text dominant-baseline="middle" text-anchor="end" transform="translate(23.498,366.0744)" font-family="Segoe UI" font-size="12" font-weight="400" fill="black">-1,5</text>
    <text dominant-baseline="middle" text-anchor="end" transform="translate(23.498,305.1504)" font-family="Segoe UI" font-size="12" font-weight="400" fill="black">-1</text>
    <text dominant-baseline="middle" text-anchor="end" transform="translate(23.498,244.2264)" font-family="Segoe UI" font-size="12" font-weight="400" fill="black">-0,5</text>
    <text dominant-baseline="middle" text-anchor="end" transform="translate(23.498,183.3024)" font-family="Segoe UI" font-size="12" font-weight="400" fill="black">0</text>
    <text dominant-baseline="middle" text-anchor="end" transform="translate(23.498,122.3784)" font-family="Segoe UI" font-size="12" font-weight="400" fill="black">0,5</text>
    <text dominant-baseline="middle" text-anchor="end" transform="translate(23.498,61.4544)" font-family="Segoe UI" font-size="12" font-weight="400" fill="black">1</text>
    <polyline points="34.498,366.0744 27.498,366.0744" style="fill:none;stroke:black;stroke-width:1" shape-rendering="crispEdges" />
    <polyline points="34.498,305.1504 27.498,305.1504" style="fill:none;stroke:black;stroke-width:1" shape-rendering="crispEdges" />
    <polyline points="34.498,244.2264 27.498,244.2264" style="fill:none;stroke:black;stroke-width:1" shape-rendering="crispEdges" />
    <polyline points="34.498,183.3024 27.498,183.3024" style="fill:none;stroke:black;stroke-width:1" shape-rendering="crispEdges" />
    <polyline points="34.498,122.3784 27.498,122.3784" style="fill:none;stroke:black;stroke-width:1" shape-rendering="crispEdges" />
    <polyline points="34.498,61.4544 27.498,61.4544" style="fill:none;stroke:black;stroke-width:1" shape-rendering="crispEdges" />
  </g>
  <defs>
    <clipPath id="clipPath2">
      <rect x="34.498" y="34.106" width="549.753" height="336.841" />
    </clipPath>
  </defs>
  <g clip-path="url(#clipPath2)">
    <ellipse cx="495.5969" cy="144.3997" rx="5" ry="5" style="fill:rgb(255,0,255);stroke:none;" shape-rendering="geometricPrecision" />
    <ellipse cx="371.892" cy="92.6734" rx="5" ry="5" style="fill:rgb(255,0,255);stroke:none;" shape-rendering="geometricPrecision" />
    <ellipse cx="485.5535" cy="120.7044" rx="5" ry="5" style="fill:rgb(255,0,255);stroke:none;" shape-rendering="geometricPrecision" />
    <ellipse cx="383.6231" cy="108.8894" rx="5" ry="5" style="fill:rgb(255,0,255);stroke:none;" shape-rendering="geometricPrecision" />
    <ellipse cx="433.0737" cy="102.2454" rx="5" ry="5" style="fill:rgb(255,0,255);stroke:none;" shape-rendering="geometricPrecision" />
    <ellipse cx="474.1533" cy="74.6963" rx="5" ry="5" style="fill:rgb(255,0,255);stroke:none;" shape-rendering="geometricPrecision" />
    <ellipse cx="268.9246" cy="88.0306" rx="5" ry="5" style="fill:rgb(255,0,255);stroke:none;" shape-rendering="geometricPrecision" />
    <ellipse cx="422.1077" cy="105.5477" rx="5" ry="5" style="fill:rgb(255,0,255);stroke:none;" shape-rendering="geometricPrecision" />
    <ellipse cx="360.9099" cy="113.6408" rx="5" ry="5" style="fill:rgb(255,0,255);stroke:none;" shape-rendering="geometricPrecision" />
    <ellipse cx="406.5749" cy="59.6697" rx="5" ry="5" style="fill:rgb(255,0,255);stroke:none;" shape-rendering="geometricPrecision" />
    <ellipse cx="542.1985" cy="153.5929" rx="5" ry="5" style="fill:rgb(255,0,255);stroke:none;" shape-rendering="geometricPrecision" />
    <ellipse cx="517.8672" cy="42.3318" rx="5" ry="5" style="fill:rgb(255,0,255);stroke:none;" shape-rendering="geometricPrecision" />
    <ellipse cx="503.5124" cy="55.8867" rx="5" ry="5" style="fill:rgb(255,0,255);stroke:none;" shape-rendering="geometricPrecision" />
    <ellipse cx="320.6461" cy="37.4084" rx="5" ry="5" style="fill:rgb(255,0,255);stroke:none;" shape-rendering="geometricPrecision" />
    <ellipse cx="429.9116" cy="94.8457" rx="5" ry="5" style="fill:rgb(255,0,255);stroke:none;" shape-rendering="geometricPrecision" />
    <ellipse cx="419.5993" cy="141.2253" rx="5" ry="5" style="fill:rgb(255,0,255);stroke:none;" shape-rendering="geometricPrecision" />
    <ellipse cx="424.0942" cy="142.2916" rx="5" ry="5" style="fill:rgb(255,0,255);stroke:none;" shape-rendering="geometricPrecision" />
    <ellipse cx="404.4671" cy="149.4836" rx="5" ry="5" style="fill:rgb(255,0,255);stroke:none;" shape-rendering="geometricPrecision" />
    <ellipse cx="348.6845" cy="127.3325" rx="5" ry="5" style="fill:rgb(255,0,255);stroke:none;" shape-rendering="geometricPrecision" />
    <ellipse cx="367.6666" cy="110.8121" rx="5" ry="5" style="fill:rgb(255,0,255);stroke:none;" shape-rendering="geometricPrecision" />
    <ellipse cx="408.7535" cy="139.7048" rx="5" ry="5" style="fill:rgb(255,0,255);stroke:none;" shape-rendering="geometricPrecision" />
    <ellipse cx="135.9369" cy="183.6888" rx="5" ry="5" style="fill:rgb(0,191,127);stroke:none;" shape-rendering="geometricPrecision" />
    <ellipse cx="85.5435" cy="182.341" rx="5" ry="5" style="fill:rgb(0,191,127);stroke:none;" shape-rendering="geometricPrecision" />
    <ellipse cx="145.3708" cy="167.9295" rx="5" ry="5" style="fill:rgb(0,191,127);stroke:none;" shape-rendering="geometricPrecision" />
    <ellipse cx="212.4736" cy="193.849" rx="5" ry="5" style="fill:rgb(0,191,127);stroke:none;" shape-rendering="geometricPrecision" />
    <ellipse cx="128.1211" cy="191.6131" rx="5" ry="5" style="fill:rgb(0,191,127);stroke:none;" shape-rendering="geometricPrecision" />
    <ellipse cx="101.9779" cy="182.8006" rx="5" ry="5" style="fill:rgb(0,191,127);stroke:none;" shape-rendering="geometricPrecision" />
    <ellipse cx="233.6041" cy="190.4257" rx="5" ry="5" style="fill:rgb(0,191,127);stroke:none;" shape-rendering="geometricPrecision" />
    <ellipse cx="207.4609" cy="181.6133" rx="5" ry="5" style="fill:rgb(0,191,127);stroke:none;" shape-rendering="geometricPrecision" />
    <ellipse cx="73.8468" cy="170.005" rx="5" ry="5" style="fill:rgb(0,191,127);stroke:none;" shape-rendering="geometricPrecision" />
    <ellipse cx="212.4736" cy="193.849" rx="5" ry="5" style="fill:rgb(0,191,127);stroke:none;" shape-rendering="geometricPrecision" />
    <ellipse cx="61.0183" cy="165.6936" rx="5" ry="5" style="fill:rgb(0,191,127);stroke:none;" shape-rendering="geometricPrecision" />
    <ellipse cx="39.8877" cy="169.1168" rx="5" ry="5" style="fill:rgb(0,191,127);stroke:none;" shape-rendering="geometricPrecision" />
    <ellipse cx="209.7588" cy="182.1618" rx="5" ry="5" style="fill:rgb(0,191,127);stroke:none;" shape-rendering="geometricPrecision" />
    <ellipse cx="125.4063" cy="179.9259" rx="5" ry="5" style="fill:rgb(0,191,127);stroke:none;" shape-rendering="geometricPrecision" />
    <ellipse cx="138.2348" cy="184.2374" rx="5" ry="5" style="fill:rgb(0,191,127);stroke:none;" shape-rendering="geometricPrecision" />
    <ellipse cx="214.7714" cy="194.3976" rx="5" ry="5" style="fill:rgb(0,191,127);stroke:none;" shape-rendering="geometricPrecision" />
    <ellipse cx="214.7714" cy="194.3976" rx="5" ry="5" style="fill:rgb(0,191,127);stroke:none;" shape-rendering="geometricPrecision" />
    <ellipse cx="201.9429" cy="190.0862" rx="5" ry="5" style="fill:rgb(0,191,127);stroke:none;" shape-rendering="geometricPrecision" />
    <ellipse cx="87.8413" cy="182.8896" rx="5" ry="5" style="fill:rgb(0,191,127);stroke:none;" shape-rendering="geometricPrecision" />
    <ellipse cx="226.4681" cy="206.7336" rx="5" ry="5" style="fill:rgb(0,191,127);stroke:none;" shape-rendering="geometricPrecision" />
    <ellipse cx="221.4555" cy="194.4979" rx="5" ry="5" style="fill:rgb(0,191,127);stroke:none;" shape-rendering="geometricPrecision" />
    <ellipse cx="149.9315" cy="196.5734" rx="5" ry="5" style="fill:rgb(0,191,127);stroke:none;" shape-rendering="geometricPrecision" />
    <ellipse cx="221.4555" cy="194.4979" rx="5" ry="5" style="fill:rgb(0,191,127);stroke:none;" shape-rendering="geometricPrecision" />
    <ellipse cx="200.325" cy="197.9211" rx="5" ry="5" style="fill:rgb(0,191,127);stroke:none;" shape-rendering="geometricPrecision" />
    <ellipse cx="534.2839" cy="200.2268" rx="5" ry="5" style="fill:rgb(255,0,0);stroke:none;" shape-rendering="geometricPrecision" />
    <ellipse cx="403.3969" cy="220.8607" rx="5" ry="5" style="fill:rgb(255,0,0);stroke:none;" shape-rendering="geometricPrecision" />
    <ellipse cx="489.127" cy="243.5151" rx="5" ry="5" style="fill:rgb(255,0,0);stroke:none;" shape-rendering="geometricPrecision" />
    <ellipse cx="442.1232" cy="136.0585" rx="5" ry="5" style="fill:rgb(255,0,0);stroke:none;" shape-rendering="geometricPrecision" />
    <ellipse cx="578.8613" cy="169.7944" rx="5" ry="5" style="fill:rgb(255,0,0);stroke:none;" shape-rendering="geometricPrecision" />
    <ellipse cx="395.9488" cy="284.5703" rx="5" ry="5" style="fill:rgb(255,0,0);stroke:none;" shape-rendering="geometricPrecision" />
    <ellipse cx="415.1398" cy="279.8082" rx="5" ry="5" style="fill:rgb(255,0,0);stroke:none;" shape-rendering="geometricPrecision" />
    <ellipse cx="409.5673" cy="215.5778" rx="5" ry="5" style="fill:rgb(255,0,0);stroke:none;" shape-rendering="geometricPrecision" />
    <ellipse cx="438.0604" cy="334.1915" rx="5" ry="5" style="fill:rgb(255,0,0);stroke:none;" shape-rendering="geometricPrecision" />
    <ellipse cx="451.3304" cy="367.6446" rx="5" ry="5" style="fill:rgb(255,0,0);stroke:none;" shape-rendering="geometricPrecision" />
    <ellipse cx="451.3304" cy="367.6446" rx="5" ry="5" style="fill:rgb(255,0,0);stroke:none;" shape-rendering="geometricPrecision" />
    <ellipse cx="351.0484" cy="120.0253" rx="5" ry="5" style="fill:rgb(255,0,0);stroke:none;" shape-rendering="geometricPrecision" />
    <ellipse cx="297.3114" cy="167.6051" rx="5" ry="5" style="fill:rgb(255,0,0);stroke:none;" shape-rendering="geometricPrecision" />
    <ellipse cx="446.2769" cy="133.0005" rx="5" ry="5" style="fill:rgb(255,0,0);stroke:none;" shape-rendering="geometricPrecision" />
    <ellipse cx="431.2235" cy="135.9676" rx="5" ry="5" style="fill:rgb(255,0,0);stroke:none;" shape-rendering="geometricPrecision" />
    <ellipse cx="457.492" cy="103.5852" rx="5" ry="5" style="fill:rgb(255,0,0);stroke:none;" shape-rendering="geometricPrecision" />
    <ellipse cx="415.7335" cy="176.1942" rx="5" ry="5" style="fill:rgb(255,0,0);stroke:none;" shape-rendering="geometricPrecision" />
    <ellipse cx="381.5308" cy="187.0386" rx="5" ry="5" style="fill:rgb(255,0,0);stroke:none;" shape-rendering="geometricPrecision" />
    <ellipse cx="386.515" cy="194.2339" rx="5" ry="5" style="fill:rgb(255,0,0);stroke:none;" shape-rendering="geometricPrecision" />
    <ellipse cx="361.2661" cy="205.1584" rx="5" ry="5" style="fill:rgb(255,0,0);stroke:none;" shape-rendering="geometricPrecision" />
    <ellipse cx="417.2935" cy="158.1259" rx="5" ry="5" style="fill:rgb(255,0,0);stroke:none;" shape-rendering="geometricPrecision" />
    <ellipse cx="433.7539" cy="122.6053" rx="5" ry="5" style="fill:rgb(255,0,0);stroke:none;" shape-rendering="geometricPrecision" />
    <ellipse cx="274.6688" cy="148.566" rx="5" ry="5" style="fill:rgb(255,0,0);stroke:none;" shape-rendering="geometricPrecision" />
    <ellipse cx="283.9976" cy="191.7735" rx="5" ry="5" style="fill:rgb(255,0,0);stroke:none;" shape-rendering="geometricPrecision" />
    <ellipse cx="322.3281" cy="127.3819" rx="5" ry="5" style="fill:rgb(255,0,0);stroke:none;" shape-rendering="geometricPrecision" />
    <ellipse cx="288.4925" cy="192.8399" rx="5" ry="5" style="fill:rgb(255,0,0);stroke:none;" shape-rendering="geometricPrecision" />
    <ellipse cx="286.2954" cy="192.3221" rx="5" ry="5" style="fill:rgb(255,0,0);stroke:none;" shape-rendering="geometricPrecision" />
    <ellipse cx="286.2954" cy="192.3221" rx="5" ry="5" style="fill:rgb(255,0,0);stroke:none;" shape-rendering="geometricPrecision" />
    <ellipse cx="305.1959" cy="180.438" rx="5" ry="5" style="fill:rgb(255,0,0);stroke:none;" shape-rendering="geometricPrecision" />
    <ellipse cx="286.2954" cy="192.3221" rx="5" ry="5" style="fill:rgb(255,0,0);stroke:none;" shape-rendering="geometricPrecision" />
    <ellipse cx="313.1411" cy="187.8423" rx="5" ry="5" style="fill:rgb(255,0,0);stroke:none;" shape-rendering="geometricPrecision" />
    <ellipse cx="449.1915" cy="167.2461" rx="5" ry="5" style="fill:rgb(255,0,0);stroke:none;" shape-rendering="geometricPrecision" />
    <ellipse cx="401.8703" cy="160.7583" rx="5" ry="5" style="fill:rgb(255,0,0);stroke:none;" shape-rendering="geometricPrecision" />
    <ellipse cx="392.5637" cy="188.3032" rx="5" ry="5" style="fill:rgb(255,0,0);stroke:none;" shape-rendering="geometricPrecision" />
    <ellipse cx="373.6633" cy="200.1872" rx="5" ry="5" style="fill:rgb(255,0,0);stroke:none;" shape-rendering="geometricPrecision" />
    <ellipse cx="388.4684" cy="195.3722" rx="5" ry="5" style="fill:rgb(255,0,0);stroke:none;" shape-rendering="geometricPrecision" />
    <ellipse cx="358.683" cy="154.0783" rx="5" ry="5" style="fill:rgb(255,0,0);stroke:none;" shape-rendering="geometricPrecision" />
    <ellipse cx="301.5952" cy="185.4821" rx="5" ry="5" style="fill:rgb(255,0,0);stroke:none;" shape-rendering="geometricPrecision" />
    <ellipse cx="416.5585" cy="180.6396" rx="5" ry="5" style="fill:rgb(255,0,0);stroke:none;" shape-rendering="geometricPrecision" />
    <ellipse cx="369.7925" cy="199.6551" rx="5" ry="5" style="fill:rgb(255,0,0);stroke:none;" shape-rendering="geometricPrecision" />
    <ellipse cx="400.8874" cy="257.6803" rx="5" ry="5" style="fill:rgb(255,0,0);stroke:none;" shape-rendering="geometricPrecision" />
    <ellipse cx="394.6209" cy="183.401" rx="5" ry="5" style="fill:rgb(255,0,0);stroke:none;" shape-rendering="geometricPrecision" />
    <ellipse cx="426.6878" cy="343.4635" rx="5" ry="5" style="fill:rgb(255,0,0);stroke:none;" shape-rendering="geometricPrecision" />
    <ellipse cx="384.5763" cy="293.8423" rx="5" ry="5" style="fill:rgb(255,0,0);stroke:none;" shape-rendering="geometricPrecision" />
    <ellipse cx="384.5763" cy="293.8423" rx="5" ry="5" style="fill:rgb(255,0,0);stroke:none;" shape-rendering="geometricPrecision" />
    <ellipse cx="384.5763" cy="293.8423" rx="5" ry="5" style="fill:rgb(255,0,0);stroke:none;" shape-rendering="geometricPrecision" />
    <ellipse cx="426.6878" cy="343.4635" rx="5" ry="5" style="fill:rgb(255,0,0);stroke:none;" shape-rendering="geometricPrecision" />
    <ellipse cx="299.9306" cy="197.6116" rx="5" ry="5" style="fill:rgb(255,0,0);stroke:none;" shape-rendering="geometricPrecision" />
    <ellipse cx="376.8031" cy="151.8821" rx="5" ry="5" style="fill:rgb(255,0,0);stroke:none;" shape-rendering="geometricPrecision" />
    <ellipse cx="413.4178" cy="310.0104" rx="5" ry="5" style="fill:rgb(255,0,0);stroke:none;" shape-rendering="geometricPrecision" />
    <ellipse cx="413.4178" cy="310.0104" rx="5" ry="5" style="fill:rgb(255,0,0);stroke:none;" shape-rendering="geometricPrecision" />
    <ellipse cx="413.4178" cy="310.0104" rx="5" ry="5" style="fill:rgb(255,0,0);stroke:none;" shape-rendering="geometricPrecision" />
    <ellipse cx="390.4972" cy="255.6271" rx="5" ry="5" style="fill:rgb(255,0,0);stroke:none;" shape-rendering="geometricPrecision" />
    <ellipse cx="283.6544" cy="203.8357" rx="5" ry="5" style="fill:rgb(255,0,0);stroke:none;" shape-rendering="geometricPrecision" />
    <ellipse cx="376.5926" cy="166.577" rx="5" ry="5" style="fill:rgb(255,0,0);stroke:none;" shape-rendering="geometricPrecision" />
  </g>
  <defs>
    <clipPath id="clipPath3">
      <rect x="0" y="0" width="600" height="400" />
    </clipPath>
  </defs>
  <g clip-path="url(#clipPath3)">
    <text dominant-baseline="hanging" text-anchor="middle" transform="translate(309.3745,8)" font-family="Segoe UI" font-size="18" font-weight="700" fill="black">Customer Segmentation</text>
    <rect x="34.498" y="34.106" width="549.753" height="336.841" style="fill:none;stroke:black;stroke-width:1" shape-rendering="crispEdges" />
  </g>
</svg>